**ABCDEFGHIJKLMNOPQRSTUVWXYZabcdefghijklmnopqrstuvwxyz**************************
**PARASOLID !"#$%&'()*+,-./:;<=>?@[\]^_`{|}~0123456789**************************
**PART1;
MC=AMD64;
MC_MODEL=Intel64 Family 6 Model 158 Stepping 9, GenuineIntel;
MC_ID=unknown;
OS=Windows_NT;
OS_RELEASE=unknown;
FRU=Parasolid Version 31.1, build 290,  3- 9-2020;
APPL=SOLIDWORKS 2020-2020296;
SITE=;
USER=unknown;
FORMAT=text;
GUISE=transmit;
KEY=LMEF8UU;
FILE=LMEF8UU.x_t;
DATE=Wed Sep 15 11:33:40 2021;
**PART2;
SCH=SCH_3101290_31100;
USFLD_SIZE=0;
**PART3;
**END_OF_HEADER*****************************************************************
T51 : TRANSMIT FILE created by modeller version 310129023 SCH_3101290_31100_1300
6222 0 12 34 CCCCCCI4 mesh1006 0 I8 polyline1008 0 CCCCCCCDI5 owner1040 0 CCCCCC
I13 boundary_mesh1006 0 I17 boundary_polyline1008 0 CCCA16 index_map_offset0 0 1
 dA9 index_map82 0 A17 node_id_index_map82 0 A20 schema_embedding_map82 0 A5 chi
ld12 0 A14 lowest_node_id0 0 1 dA16 mesh_offset_data206 0 Z1 953 2 3 0 0 0 0 0 0
 1e3 1e-8 0 4 0 1 0 1 1 5 6 7 0 0 0 8 9 0 0 0 0 0 0 0 0 81 255 2 2 931 10 1 11 0
 0 0 0 12 70 11 CI9 list_type0 0 1 uI10 notransmit0 0 1 lCCCDCCDI12 finger_index
0 0 1 dI12 finger_block1012 0 CZ3 0 4 T1 0 0 11 20 1 13 13 13 255 5 31 0 1 0 14
 0 0 15 0 51 255 6 30 0 16 17 0 0 -0 0 .005 0 0 -1 .016 -1 0 0 31 255 7 640 0 18
 19 0 0 -0 0 .0013 0 0 1 1 0 0 .004 19 8 CCCCCCCA5 owner12 0 Z8 9 0 1 15 0 20 V0
 16 255 9 55 21 ?22 0 23 24 0 0 1 81 2 21 839 25 9 0 0 26 27 0 0 17 255 22 0 28
 22 22 0 29 9 0 0 +16 23 5 30 ?31 9 32 33 0 0 1 31 24 83 0 9 34 33 0 +0 0 .005 0
 0 1 1 0 0 .008 31 34 84 0 35 36 24 0 +0 0 .0247 0 0 1 1 0 0 .008 31 33 7 0 23 2
4 37 0 +0 0 .005 0 0 1 1 0 0 .016 31 37 25 0 32 33 19 0 +0 0 0 0 0 1 1 0 0 .016
 16 32 20 38 ?39 23 35 37 0 0 1 31 19 570 0 40 37 7 0 -0 0 .0234 0 0 1 1 0 0 .00
4 16 40 587 27 ?41 42 43 19 0 0 1 81 2 27 840 25 40 0 0 21 44 0 0 17 41 0 45 41
 41 0 46 40 0 0 +16 42 453 47 ?48 49 40 50 0 0 1 16 43 584 51 ?52 40 53 54 0 0 1
 81 2 51 863 25 43 0 0 55 0 0 0 17 52 0 56 52 52 0 57 43 0 0 +16 53 580 58 ?59 4
3 18 60 0 0 1 31 54 614 0 43 61 60 0 +0 0 .0234 0 0 1 1 0 0 .0065 31 61 677 0 62
 63 54 0 +0 0 0 0 0 1 1 0 0 .0065 31 60 613 0 53 54 64 0 +0 0 .0247 0 0 1 1 0 0
 .0065 31 64 519 0 65 60 66 0 +0 .012 .0037 0 0 -1 -1 0 0 .00175 16 65 360 67 ?6
8 69 70 64 0 0 1 31 66 517 0 71 64 72 0 +0 .012 .0037 0 0 -1 -1 0 0 .00325 16 71
 357 73 ?74 75 69 66 0 0 1 31 72 516 0 69 66 76 0 +0 .012 0 0 0 -1 -1 0 0 .00325
 16 69 363 77 ?78 71 65 72 0 0 1 31 76 515 0 79 72 80 0 +-.012 0 .0037 0 0 -1 -1
 0 0 .00175 16 79 391 81 ?82 83 84 76 0 0 1 31 80 513 0 70 76 85 0 +-.012 0 .003
7 0 0 -1 -1 0 0 .00325 16 70 388 86 ?87 65 83 80 0 0 1 31 85 512 0 83 80 88 0 +-
.012 0 0 0 0 -1 -1 0 0 .00325 16 83 394 89 ?90 70 79 85 0 0 1 31 88 511 0 91 85
 92 0 +0 -.012 .0037 0 0 -1 -1 0 0 .00175 16 91 422 93 ?94 95 96 88 0 0 1 31 92
 509 0 84 88 97 0 +0 -.012 .0037 0 0 -1 -1 0 0 .00325 16 84 419 98 ?99 79 95 92
 0 0 1 31 97 508 0 95 92 50 0 +0 -.012 0 0 0 -1 -1 0 0 .00325 16 95 425 100 ?101
 84 91 97 0 0 1 31 50 507 0 42 97 102 0 +.012 0 .0037 0 0 -1 -1 0 0 .00175 31 10
2 505 0 96 50 103 0 +.012 0 .0037 0 0 -1 -1 0 0 .00325 16 96 450 104 ?105 91 49
 102 0 0 1 31 103 504 0 49 102 106 0 +.012 0 0 0 0 -1 -1 0 0 .00325 16 49 456 26
 ?107 96 42 103 0 0 1 31 106 282 0 108 103 109 0 -0 .012 .005 0 0 1 1 0 0 .00175
 16 108 193 110 ?111 35 112 106 0 0 1 31 109 280 0 112 106 113 0 --.012 0 .005 0
 0 1 1 0 0 .00175 16 112 209 114 ?115 108 116 109 0 0 1 31 113 278 0 116 109 36
 0 -0 -.012 .005 0 0 1 1 0 0 .00175 16 116 225 117 ?118 112 75 113 0 0 1 31 36 2
76 0 75 113 34 0 -.012 0 .005 0 0 1 1 0 0 .00175 16 75 241 55 ?119 116 71 36 0 0
 1 81 2 55 862 25 75 0 0 58 51 0 0 17 119 0 120 119 119 0 121 75 0 0 +15 255 120
 170 0 119 122 123 17 121 0 124 121 121 0 119 75 0 0 -15 124 248 0 121 125 126 1
4 255 125 330 127 ?128 14 124 5 129 -0 0 128 14 20 15 126 328 0 48 125 0 17 48 0
 126 48 48 0 130 42 0 0 +17 130 0 131 130 130 0 48 42 0 0 -15 131 469 0 130 132
 133 14 132 467 134 ?135 136 131 5 137 +0 0 135 136 20 15 133 470 0 105 132 0 17
 105 0 133 105 105 0 138 96 0 0 +17 138 0 139 138 138 0 105 96 0 0 -15 139 465 0
 138 136 140 14 136 462 141 ?132 142 139 5 143 -0 0 132 142 20 15 140 466 0 107
 136 0 17 107 0 140 107 107 0 144 49 0 0 +17 144 0 145 144 144 0 107 49 0 0 -15
 145 333 0 144 146 147 14 146 18 148 ?149 122 150 5 17 -0 0 149 122 20 15 147 19
 0 151 146 0 17 151 0 147 151 151 0 39 32 0 0 -17 39 0 152 39 39 0 151 32 0 0 +1
5 152 28 0 39 16 0 14 16 27 153 ?122 154 155 5 6 -0 0 122 154 20 81 1 153 936 15
6 16 157 0 148 158 159 14 122 1 158 ?146 16 160 5 161 +0 0 146 16 20 14 154 312
 162 ?16 163 164 5 165 -0 0 16 163 20 15 155 26 0 166 16 152 13 20 10 0 0 0 0 0
 0 8 14 14 14 571 167 ?125 0 168 5 169 -0 0 125 0 20 81 1 167 939 156 14 170 0 1
62 171 172 15 168 638 0 173 14 174 51 169 128 0 14 129 175 0 +0 0 -1000000000001
e-18 0 0 1 .004 1 0 0 51 129 264 0 125 176 169 0 +.012 0 .024701 0 0 -1 .00175 -
1 0 0 50 255 175 82 0 177 169 178 0 +0 0 .0247 0 0 1 1 0 0 14 177 72 171 ?179 14
9 180 5 175 +0 0 179 149 20 51 178 80 0 149 175 161 0 -0 0 .0247 0 0 -1 .008 -1
 0 0 14 149 67 181 ?177 146 182 5 178 -0 0 177 146 20 50 161 3 0 122 178 17 0 +0
 0 .005 0 0 1 1 0 0 50 17 24 0 146 161 6 0 +0 0 0 0 0 1 1 0 0 81 1 181 941 156 1
49 183 0 171 184 185 15 182 70 0 186 149 28 17 186 0 182 186 186 0 187 35 0 0 -1
5 28 71 0 22 149 0 17 187 0 188 187 187 0 186 35 0 0 +16 35 64 44 ?187 32 108 34
 0 0 1 81 2 44 841 25 35 0 0 27 100 0 0 80 255 2 25 189 190 9000 0 0 0 0 3 6 0 0
 0 FFFFFFTFFFFFFF9 1 81 2 100 842 25 95 0 0 44 191 0 0 81 2 191 843 25 62 0 0 10
0 98 0 0 16 62 648 191 ?192 193 0 61 0 0 1 81 2 98 844 25 84 0 0 191 73 0 0 81 2
 73 845 25 71 0 0 98 77 0 0 81 2 77 846 25 69 0 0 73 104 0 0 81 2 104 847 25 96
 0 0 77 38 0 0 81 2 38 848 25 32 0 0 104 81 0 0 81 2 81 849 25 79 0 0 38 86 0 0
 81 2 86 850 25 70 0 0 81 30 0 0 81 2 30 851 25 23 0 0 86 67 0 0 81 2 67 852 25
 65 0 0 30 89 0 0 81 2 89 853 25 83 0 0 67 117 0 0 81 2 117 854 25 116 0 0 89 47
 0 0 81 2 47 855 25 42 0 0 117 194 0 0 81 2 194 856 25 18 0 0 47 110 0 0 16 18 6
47 194 ?173 53 193 7 0 0 1 81 2 110 857 25 108 0 0 194 114 0 0 81 2 114 858 25 1
12 0 0 110 195 0 0 81 2 195 859 25 193 0 0 114 93 0 0 16 193 644 195 ?196 18 62
 63 0 0 1 81 2 93 860 25 91 0 0 195 58 0 0 81 2 58 861 25 53 0 0 93 55 0 0 17 19
6 0 197 196 196 0 198 193 0 0 +31 63 678 0 193 0 61 0 +0 0 .0013 0 0 1 1 0 0 .00
65 15 197 663 0 196 199 200 17 198 0 201 198 198 0 196 193 0 0 -15 201 654 0 198
 202 203 14 202 652 184 ?199 204 201 5 205 -0 0 199 204 20 15 203 655 0 206 202
 0 17 206 0 203 206 206 0 173 18 0 0 -17 173 0 168 173 173 0 206 18 0 0 +81 1 18
4 942 156 202 207 0 181 208 209 14 199 660 208 ?0 202 197 5 210 +0 0 0 202 20 14
 204 596 211 ?202 135 212 5 213 -0 0 202 135 20 50 205 675 0 202 0 210 0 +0 0 .0
013 0 0 1 1 0 0 51 210 673 0 199 205 214 0 -0 0 .0013 0 0 -1 .0065 -1 0 0 50 214
 611 0 135 210 213 0 +0 0 .0234 0 0 1 1 0 0 14 135 588 215 ?204 132 56 5 214 +0
 0 204 132 20 51 213 609 0 204 214 216 0 +0 0 .0234 0 0 1 .0065 1 0 0 50 216 502
 0 217 213 218 0 +0 .012 .0037 0 0 -1 -1 0 0 14 217 374 219 ?220 179 221 5 216 +
0 0 220 179 20 51 218 500 0 179 216 222 0 +0 .012 .0037 0 0 -1 .00325 -1 0 0 14
 179 369 223 ?217 177 224 5 218 -0 0 217 177 20 50 222 498 0 225 218 226 0 +-.01
2 0 .0037 0 0 -1 -1 0 0 14 225 405 227 ?228 220 229 5 222 +0 0 228 220 20 51 226
 496 0 220 222 230 0 +-.012 0 .0037 0 0 -1 .00325 -1 0 0 14 220 400 231 ?225 217
 232 5 226 -0 0 225 217 20 50 230 494 0 142 226 233 0 +0 -.012 .0037 0 0 -1 -1 0
 0 14 142 436 234 ?136 228 235 5 230 +0 0 136 228 20 51 233 492 0 228 230 137 0
 +0 -.012 .0037 0 0 -1 .00325 -1 0 0 14 228 431 236 ?142 225 237 5 233 -0 0 142
 225 20 50 137 490 0 132 233 143 0 +.012 0 .0037 0 0 -1 -1 0 0 51 143 488 0 136
 137 165 0 +.012 0 .0037 0 0 -1 .00325 -1 0 0 51 165 273 0 154 143 238 0 +0 .012
 .024701 0 0 -1 .00175 -1 0 0 51 238 270 0 163 165 176 0 +-.012 0 .024701 0 0 -1
 .00175 -1 0 0 14 163 318 239 ?154 128 240 5 238 -0 0 154 128 20 51 176 267 0 12
8 238 129 0 +0 -.012 .024701 0 0 -1 .00175 -1 0 0 14 128 324 241 ?163 125 242 5
 176 -0 0 163 125 20 81 1 241 953 156 128 243 0 239 0 244 15 242 232 0 245 128 2
46 17 245 0 242 245 245 0 118 116 0 0 -15 246 322 0 94 128 0 17 94 0 246 94 94 0
 247 91 0 0 +17 247 0 235 247 247 0 94 91 0 0 -15 235 438 0 247 142 248 15 248 4
39 0 99 142 0 17 99 0 248 99 99 0 249 84 0 0 +17 249 0 237 249 249 0 99 84 0 0 -
15 237 434 0 249 228 250 15 250 435 0 101 228 0 17 101 0 250 101 101 0 251 95 0
 0 +17 251 0 252 251 251 0 101 95 0 0 -15 252 339 0 251 146 145 17 118 0 253 118
 118 0 245 116 0 0 +15 253 176 0 118 122 120 80 1 156 254 255 9000 1 1 1 1 1 1 1
 1 0 FFFFTFTFFFFFFF1 81 1 243 866 256 128 257 241 258 259 260 81 1 239 952 156 1
63 259 0 236 241 261 82 255 1 244 340066418 81 1 259 867 256 163 262 239 243 263
 264 81 1 236 951 156 228 265 0 234 239 266 82 1 261 339542130 81 1 265 878 256
 228 267 236 268 269 270 81 1 234 950 156 142 269 0 231 236 271 82 1 266 3265660
02 81 1 269 879 256 142 272 234 265 273 274 81 1 231 949 156 220 275 0 227 234 2
76 82 1 271 324599922 81 1 275 876 256 220 277 231 278 268 279 81 1 227 948 156
 225 268 0 223 231 280 82 1 276 322633842 81 1 268 877 256 225 281 227 275 265 2
82 81 1 223 947 156 179 283 0 219 227 284 82 1 280 320667762 81 1 283 874 256 17
9 285 223 286 278 287 81 1 219 946 156 217 278 0 215 223 288 82 1 284 318701682
 81 1 278 875 256 217 289 219 283 275 290 81 1 215 945 156 135 291 0 211 219 292
 82 1 288 316735602 81 1 291 882 256 135 293 215 294 295 296 81 1 211 944 156 20
4 295 0 208 215 297 82 1 292 -1403453312 81 1 295 883 256 204 298 211 291 207 29
9 81 1 208 943 156 199 300 0 184 211 301 82 1 297 -1406402432 81 1 300 885 256 1
99 302 208 207 0 303 82 1 301 489488551 80 1 256 0 304 8001 0 0 0 0 3 5 0 0 0 FF
FFTFTFFFFFFF2 81 2 302 789 305 199 0 300 306 0 0 0 81 1 207 884 256 202 306 184
 295 300 307 83 255 3 303 .792156862745098 .819607843137255 .933333333333333 81
 2 306 787 305 202 0 207 298 302 0 0 83 3 307 .792156862745098 .819607843137255
 .933333333333333 80 2 305 308 309 9000 0 0 0 0 3 6 0 0 0 FFFFTFFFFFFFFF9 1 81 2
 298 785 305 204 0 295 293 306 0 0 81 2 293 783 305 135 0 291 310 298 0 0 81 2 3
10 781 305 132 0 294 311 293 0 0 81 1 294 881 256 132 310 134 273 291 312 81 2 3
11 779 305 136 0 273 272 310 0 0 81 1 273 880 256 136 311 141 269 294 313 81 2 2
72 777 305 142 0 269 267 311 0 0 81 2 267 775 305 228 0 265 281 272 0 0 81 2 281
 773 305 225 0 268 277 267 0 0 81 2 277 771 305 220 0 275 289 281 0 0 81 2 289 7
69 305 217 0 278 285 277 0 0 81 2 285 767 305 179 0 283 314 289 0 0 81 2 314 765
 305 177 0 286 315 285 0 0 81 1 286 873 256 177 314 171 183 283 316 81 2 315 763
 305 149 0 183 317 314 0 0 81 1 183 872 256 149 315 181 318 286 319 81 2 317 761
 305 146 0 318 320 315 0 0 81 1 318 871 256 146 317 148 321 183 322 81 2 320 759
 305 122 0 321 323 317 0 0 81 1 321 870 256 122 320 158 157 318 324 81 2 323 757
 305 16 0 157 325 320 0 0 81 1 157 869 256 16 323 153 263 321 326 81 2 325 755 3
05 154 0 263 262 323 0 0 81 1 263 868 256 154 325 162 259 157 327 81 2 262 753 3
05 163 0 259 257 325 0 0 81 2 257 751 305 128 0 243 328 262 0 0 81 2 328 749 305
 125 0 258 329 257 0 0 81 1 258 865 256 125 328 127 170 243 330 81 2 329 747 305
 14 0 170 0 328 0 0 81 1 170 864 256 14 329 167 0 258 331 83 3 331 .792156862745
098 .819607843137255 .933333333333333 81 1 127 932 156 125 258 0 0 134 332 83 3
 330 .792156862745098 .819607843137255 .933333333333333 81 1 134 933 156 132 294
 0 127 141 333 82 1 332 340590706 81 1 141 934 156 136 273 0 134 148 334 82 1 33
3 328532082 81 1 148 935 156 146 318 0 141 153 335 82 1 334 330498162 82 1 335 -
463535961 81 1 162 938 156 154 263 0 158 167 336 83 3 327 .792156862745098 .8196
07843137255 .933333333333333 81 1 158 937 156 122 321 0 153 162 337 82 1 336 339
017842 82 1 337 2084634736 83 3 326 .792156862745098 .819607843137255 .933333333
333333 83 3 324 .792156862745098 .819607843137255 .933333333333333 83 3 322 .792
156862745098 .819607843137255 .933333333333333 83 3 319 .792156862745098 .819607
843137255 .933333333333333 81 1 171 940 156 177 286 0 167 181 338 83 3 316 .7921
56862745098 .819607843137255 .933333333333333 82 1 338 -1070858112 83 3 313 .792
156862745098 .819607843137255 .933333333333333 83 3 312 .792156862745098 .819607
843137255 .933333333333333 79 255 14 309 FACE_ID_2_200179 15 304 SDL/TYSA_COLOUR
83 3 299 .792156862745098 .819607843137255 .933333333333333 83 3 296 .7921568627
45098 .819607843137255 .933333333333333 83 3 290 .792156862745098 .8196078431372
55 .933333333333333 83 3 287 .792156862745098 .819607843137255 .933333333333333
 83 3 282 .792156862745098 .819607843137255 .933333333333333 83 3 279 .792156862
745098 .819607843137255 .933333333333333 83 3 274 .792156862745098 .819607843137
255 .933333333333333 83 3 270 .792156862745098 .819607843137255 .933333333333333
 83 3 264 .792156862745098 .819607843137255 .933333333333333 83 3 260 .792156862
745098 .819607843137255 .933333333333333 79 14 255 SWEntUnchanged15 240 216 0 33
9 163 340 17 339 0 240 339 339 0 115 112 0 0 -15 340 316 0 82 163 0 17 82 0 340
 82 82 0 341 79 0 0 +17 341 0 229 341 341 0 82 79 0 0 -15 229 407 0 341 225 342
 15 342 408 0 87 225 0 17 87 0 342 87 87 0 343 70 0 0 +17 343 0 232 343 343 0 87
 70 0 0 -15 232 403 0 343 220 344 15 344 404 0 90 220 0 17 90 0 344 90 90 0 345
 83 0 0 +17 345 0 346 345 345 0 90 83 0 0 -15 346 345 0 345 146 252 17 115 0 347
 115 115 0 339 112 0 0 +15 347 182 0 115 122 253 15 224 372 0 348 179 349 17 348
 0 224 348 348 0 74 71 0 0 -15 349 373 0 78 179 0 17 78 0 349 78 78 0 350 69 0 0
 +17 350 0 351 350 350 0 78 69 0 0 -15 351 351 0 350 146 346 17 74 0 352 74 74 0
 348 71 0 0 +15 352 377 0 74 217 0 15 221 376 0 353 217 352 17 353 0 221 353 353
 0 68 65 0 0 -17 68 0 354 68 68 0 353 65 0 0 +15 354 310 0 68 154 0 15 56 590 0
 52 135 45 15 45 591 0 41 135 0 15 212 599 0 57 204 355 17 57 0 212 57 57 0 52 4
3 0 0 -15 355 600 0 59 204 0 17 59 0 355 59 59 0 356 53 0 0 +17 356 0 180 356 35
6 0 59 53 0 0 -15 180 575 0 356 177 188 15 188 74 0 187 177 0 82 1 209 493093031
 15 200 664 0 357 199 0 17 357 0 200 357 357 0 192 62 0 0 -17 192 0 150 192 192
 0 357 62 0 0 +15 150 633 0 192 146 351 79 19 190 EDGE_PERM_ID_2_200382 1 185 -1
068892054 15 174 569 0 46 14 0 17 46 0 174 46 46 0 41 40 0 0 -82 1 172 -46451900
1 17 166 0 155 166 166 0 31 23 0 0 -17 31 0 358 31 31 0 166 23 0 0 +15 358 4 0 3
1 122 0 15 164 200 0 359 154 354 17 359 0 164 359 359 0 111 108 0 0 -17 111 0 16
0 111 111 0 359 108 0 0 +15 160 188 0 111 122 347 82 1 159 2086600807 15 123 57
 0 29 122 358 17 29 0 123 29 29 0 22 9 0 0 -81 2 26 838 25 49 0 0 0 21 0 0 19 15
 32 0 1 0 8 5 S0 74 4 CI16 index_map_offset0 0 1 dCCZ20 13 11 0 0 241 360 361 36
2 363 364 11 302 51 300 2 0 0 0 0 0 0 0 0 0 81 2 360 87 365 1 0 361 0 0 0 366 81
 2 361 91 367 1 360 362 0 0 0 368 81 1 362 691 369 1 361 363 0 0 370 81 2 363 71
7 371 1 362 364 0 0 372 0 81 2 364 740 373 1 363 11 0 0 0 374 81 2 11 743 375 1
 364 2 0 0 0 0 80 2 375 376 377 9000 0 0 0 0 3 5 0 0 0 FFTFFFFFFFFFFF9 1 79 16 3
77 BODY_RECIPE_200180 2 373 378 379 9000 0 0 0 0 3 5 0 0 0 FFTFFFFFFFFFFF9 1 82
 1 374 1 79 24 379 BODY_IN_LIGHTWEIGHT_PERM80 2 371 380 381 8004 0 0 0 0 3 5 0 0
 0 FFTFFFFFFFFFFF2 3 83 1 372 1 79 16 381 SDL/TYSA_DENSITY80 1 369 382 383 9000
 1 1 1 1 1 1 1 1 0 FFTFFFFFFFFFFF1 82 1 370 844776 79 10 383 BODY_MATCH80 2 367
 384 385 9000 0 0 0 0 3 5 0 0 0 FFTFFFFFFFFFFF9 1 82 1 368 89 79 30 385 LAST_BOD
Y_MODIFYING_FEATURE_ID80 2 365 386 387 9000 0 0 0 0 3 5 0 0 0 FFTFFFFFFFFFFT9 1
 82 1 366 148 79 19 387 ENT_TIME_STAMP_200180 2 10 25 388 9000 0 0 0 0 3 5 0 0 0
 FFTFFFFFFFFFFF9 1 82 1 12 107 79 12 388 ATOM_ID_20011 0 
