**ABCDEFGHIJKLMNOPQRSTUVWXYZabcdefghijklmnopqrstuvwxyz**************************
**PARASOLID !"#$%&'()*+,-./:;<=>?@[\]^_`{|}~0123456789**************************
**PART1;
MC=AMD64;
MC_MODEL=Intel64 Family 6 Model 158 Stepping 9, GenuineIntel;
MC_ID=unknown;
OS=Windows_NT;
OS_RELEASE=unknown;
FRU=Parasolid Version 31.1, build 290,  3- 9-2020;
APPL=SOLIDWORKS 2020-2020296;
SITE=;
USER=unknown;
FORMAT=text;
GUISE=transmit;
KEY=LMEF8UU_detailed;
FILE=LMEF8UU_detailed.x_t;
DATE=Wed Sep 15 11:33:22 2021;
**PART2;
SCH=SCH_3101290_31100;
USFLD_SIZE=0;
**PART3;
**END_OF_HEADER*****************************************************************
T51 : TRANSMIT FILE created by modeller version 310129023 SCH_3101290_31100_1300
6222 0 12 34 CCCCCCI4 mesh1006 0 I8 polyline1008 0 CCCCCCCDI5 owner1040 0 CCCCCC
I13 boundary_mesh1006 0 I17 boundary_polyline1008 0 CCCA16 index_map_offset0 0 1
 dA9 index_map82 0 A17 node_id_index_map82 0 A20 schema_embedding_map82 0 A5 chi
ld12 0 A14 lowest_node_id0 0 1 dA16 mesh_offset_data206 0 Z1 1641 2 3 4 0 0 0 0
 0 1e3 1e-8 0 5 0 1 0 1 1 6 7 8 0 0 0 9 10 0 0 0 0 0 0 0 0 81 255 2 2 1608 11 1
 12 0 0 0 0 13 70 11 CI9 list_type0 0 1 uI10 notransmit0 0 1 lCCCDCCDI12 finger_
index0 0 1 dI12 finger_block1012 0 CZ3 0 4 T1 0 0 12 20 1 14 14 50 255 4 700 0 1
 15 0 0 +0 0 .0047 0 0 1 1 0 0 13 255 6 31 0 1 0 16 0 0 17 0 52 255 7 1070 18 19
 20 0 0 +0 0 .005 0 0 -1 .0155 .707106781186543 .707106781186552 -1 0 0 31 255 8
 1023 0 10 21 0 0 +0 0 .005 0 0 1 1 0 0 .0155 19 8 CCCCCCCA5 owner12 0 Z9 9 0 1
 17 0 22 V0 16 255 10 1020 23 ?24 0 25 8 0 0 1 81 2 23 1503 26 10 0 0 27 0 0 0 1
7 255 24 0 28 24 24 0 29 10 0 0 +16 25 1014 30 ?31 10 32 21 0 0 1 81 2 30 1474 2
6 25 0 0 33 34 0 0 17 31 0 35 31 31 0 36 25 0 0 +16 32 1008 37 ?38 25 39 40 0 0
 1 31 21 1017 0 25 40 8 0 -0 0 0 0 0 1 1 0 0 .0155 31 40 1011 0 32 41 21 0 +0 0
 5e-4 0 0 1 1 0 0 .016 31 41 1005 0 39 42 40 0 -0 0 .0045 0 0 1 1 0 0 .016 16 39
 1002 43 ?44 32 45 41 0 0 1 31 42 998 0 45 46 41 0 -0 0 .0242 0 0 1 1 0 0 .008 1
6 45 995 47 ?48 39 49 42 0 0 1 31 46 992 0 49 50 42 0 +0 0 .0247 0 0 1 1 0 0 .00
75 16 49 989 51 ?52 45 53 46 0 0 1 31 50 832 0 53 54 46 0 -0 0 .0052 0 0 1 1 0 0
 .0075 16 53 829 55 ?56 49 57 50 0 0 1 31 54 276 0 58 59 50 0 -.012 0 .005 0 0 1
 1 0 0 .00175 16 58 241 60 ?61 62 63 54 0 0 1 31 59 278 0 62 64 54 0 -0 -.012 .0
05 0 0 1 1 0 0 .00175 16 62 225 65 ?66 67 58 59 0 0 1 31 64 280 0 67 68 59 0 --.
012 0 .005 0 0 1 1 0 0 .00175 16 67 209 69 ?70 57 62 64 0 0 1 31 68 282 0 57 71
 64 0 -0 .012 .005 0 0 1 1 0 0 .00175 16 57 193 72 ?73 53 67 68 0 0 1 31 71 504
 0 74 75 68 0 +.012 0 0 0 0 -1 -1 0 0 .00325 16 74 456 76 ?77 78 79 71 0 0 1 31
 75 505 0 78 80 71 0 +.012 0 .0037 0 0 -1 -1 0 0 .00325 16 78 450 34 ?81 82 74 7
5 0 0 1 31 80 507 0 79 83 75 0 +.012 0 .0037 0 0 -1 -1 0 0 .00175 16 79 453 33 ?
84 74 85 80 0 0 1 31 83 508 0 86 87 80 0 +0 -.012 0 0 0 -1 -1 0 0 .00325 16 86 4
25 88 ?89 90 82 83 0 0 1 31 87 509 0 90 91 83 0 +0 -.012 .0037 0 0 -1 -1 0 0 .00
325 16 90 419 92 ?93 94 86 87 0 0 1 31 91 511 0 82 95 87 0 +0 -.012 .0037 0 0 -1
 -1 0 0 .00175 16 82 422 96 ?97 86 78 91 0 0 1 31 95 512 0 98 99 91 0 +-.012 0 0
 0 0 -1 -1 0 0 .00325 16 98 394 100 ?101 102 94 95 0 0 1 31 99 513 0 102 103 95
 0 +-.012 0 .0037 0 0 -1 -1 0 0 .00325 16 102 388 104 ?105 106 98 99 0 0 1 31 10
3 515 0 94 107 99 0 +-.012 0 .0037 0 0 -1 -1 0 0 .00175 16 94 391 108 ?109 98 90
 103 0 0 1 31 107 516 0 110 111 103 0 +0 .012 0 0 0 -1 -1 0 0 .00325 16 110 363
 112 ?113 63 106 107 0 0 1 31 111 517 0 63 114 107 0 +0 .012 .0037 0 0 -1 -1 0 0
 .00325 16 63 357 115 ?116 58 110 111 0 0 1 31 114 519 0 106 117 111 0 +0 .012 .
0037 0 0 -1 -1 0 0 .00175 16 106 360 118 ?119 110 102 114 0 0 1 31 117 613 0 120
 121 114 0 +0 0 .0247 0 0 1 1 0 0 .0065 16 120 580 122 ?123 85 124 117 0 0 1 31
 121 614 0 85 125 117 0 +0 0 .0234 0 0 1 1 0 0 .0065 16 85 584 126 ?127 79 120 1
21 0 0 1 31 125 674 0 128 129 121 0 +0 0 0 0 0 1 1 0 0 .0065 16 128 645 130 ?131
 124 132 125 0 0 1 31 129 675 0 124 133 125 0 +0 0 .0013 0 0 1 1 0 0 .0065 16 12
4 641 134 ?135 120 128 129 0 0 1 31 133 741 0 136 137 129 0 +0 0 .005 0 0 1 1 0
 0 .0095 16 136 708 138 ?139 132 140 133 0 0 1 31 137 743 0 132 141 133 0 -0 0 .
0047 0 0 1 1 0 0 .0095 16 132 715 142 ?143 128 136 137 0 0 1 31 141 808 0 140 14
4 137 0 +0 0 .0057 0 0 1 1 0 0 .008 16 140 771 27 ?145 136 146 141 0 0 1 31 144
 809 0 146 147 141 0 +0 0 .0047 0 0 1 1 0 0 .0075 16 146 774 148 ?149 140 150 14
4 0 0 1 31 147 901 0 151 152 144 0 +0 0 .0234 0 0 1 1 0 0 .0045 16 151 871 153 ?
154 150 155 147 0 0 1 31 152 902 0 150 156 147 0 +0 0 .0239 0 0 1 1 0 0 .0045 16
 150 865 157 ?158 146 151 152 0 0 1 31 156 904 0 155 159 152 0 +0 0 .0239 0 0 1
 1 0 0 .004 16 155 874 160 ?161 151 162 156 0 0 1 31 159 966 0 163 164 156 0 +0
 0 .0013 0 0 1 1 0 0 .0045 16 163 936 165 ?166 162 167 159 0 0 1 31 164 967 0 16
2 168 159 0 +0 0 8e-4 0 0 1 1 0 0 .0045 16 162 930 169 ?170 155 163 164 0 0 1 31
 168 969 0 167 0 164 0 +0 0 8e-4 0 0 1 1 0 0 .004 16 167 933 171 ?172 163 0 168
 0 0 1 81 2 171 1477 26 167 0 0 76 55 0 0 17 172 0 173 172 172 0 174 167 0 0 +15
 255 173 949 0 172 175 176 17 174 0 177 174 174 0 172 167 0 0 -15 177 958 0 174
 178 0 14 255 178 571 179 ?180 16 181 6 182 -0 0 180 16 22 81 1 179 1609 183 178
 184 0 0 185 186 14 180 330 185 ?187 178 188 6 189 -0 0 187 178 22 14 16 862 190
 ?178 0 191 6 192 +0 0 178 0 22 15 181 893 0 161 178 177 51 255 182 128 0 178 18
9 193 0 +0 0 -1000000000001e-18 0 0 1 .004 1 0 0 13 22 10 0 0 0 0 0 0 9 16 51 18
9 264 0 180 194 182 0 +.012 0 .024701 0 0 -1 .00175 -1 0 0 50 193 82 0 195 182 1
96 0 +0 0 .0247 0 0 1 1 0 0 14 195 72 197 ?198 199 200 6 193 +0 0 198 199 22 51
 196 80 0 199 193 201 0 -0 0 .0247 0 0 -1 .008 -1 0 0 14 199 67 202 ?195 203 204
 6 196 -0 0 195 203 22 50 201 3 0 205 196 206 0 +0 0 .005 0 0 1 1 0 0 14 205 1 2
07 ?203 208 28 6 201 +0 0 203 208 22 50 206 24 0 203 201 209 0 +0 0 0 0 0 1 1 0
 0 14 203 18 210 ?199 205 35 6 206 -0 0 199 205 22 51 209 30 0 208 206 211 0 -0
 0 .005 0 0 -1 .016 -1 0 0 14 208 27 212 ?205 213 214 6 209 -0 0 205 213 22 52 2
11 848 215 216 209 217 0 -0 0 .0057 0 0 1 .008 .707106781186549 .707106781186546
 1 0 0 81 2 215 849 218 211 0 0 0 219 220 221 14 216 841 222 ?223 224 225 6 211
 -0 0 223 224 22 52 217 1042 219 226 211 20 0 +0 0 .0247 0 0 -1 .0075 .707106781
186552 .707106781186543 -1 0 0 81 2 219 1043 218 217 0 0 215 227 228 229 14 226
 1035 230 ?231 175 232 6 217 +0 0 231 175 22 52 20 1056 227 231 217 7 0 +0 0 5e-
4 0 0 1 .016 .70710678118655 .707106781186545 1 0 0 81 2 227 1057 218 20 0 0 219
 18 233 234 14 231 1049 235 ?19 226 236 6 20 +0 0 19 226 22 81 1 235 1619 183 23
1 237 0 230 238 239 14 19 1063 238 ?0 231 240 6 7 +0 0 0 231 22 15 236 1050 0 36
 231 241 17 36 0 236 36 36 0 31 25 0 0 -15 241 1051 0 242 231 0 17 242 0 241 242
 242 0 38 32 0 0 -17 38 0 214 38 38 0 242 32 0 0 +15 214 1009 0 38 208 243 15 24
3 1003 0 44 208 0 17 44 0 243 44 44 0 244 39 0 0 +17 244 0 240 244 244 0 44 39 0
 0 -15 240 1064 0 244 19 245 15 245 1065 0 29 19 0 17 29 0 245 29 29 0 24 10 0 0
 -81 1 238 1620 183 19 246 0 235 247 248 80 255 1 183 249 250 9000 1 1 1 1 1 1 1
 1 0 FFFFTFTFFFFFFF1 81 1 246 1536 251 19 252 238 237 0 253 81 1 247 1621 183 17
5 254 0 238 255 256 82 255 1 248 1988558995 14 175 947 247 ?226 257 173 6 258 -0
 0 226 257 22 81 1 254 1533 251 175 259 247 260 261 262 81 1 255 1622 183 257 26
0 0 247 263 264 82 1 256 -473038703 14 257 942 255 ?175 265 266 6 267 +0 0 175 2
65 22 81 1 260 1532 251 257 268 255 269 254 270 81 1 263 1623 183 265 269 0 255
 271 272 82 1 264 -471072623 14 265 885 263 ?257 223 273 6 274 -0 0 257 223 22 8
1 1 269 1531 251 265 275 263 276 260 277 81 1 271 1624 183 223 276 0 263 278 279
 82 1 272 -1053425521 14 223 877 271 ?265 216 280 6 281 +0 0 265 216 22 81 1 276
 1530 251 223 282 271 283 269 284 81 1 278 1625 183 224 285 0 271 286 287 82 1 2
79 -1051197297 14 224 796 278 ?216 288 289 6 290 -0 0 216 288 22 81 1 285 1528 2
51 224 291 278 292 283 293 81 1 286 1626 183 288 292 0 278 294 295 82 1 287 1021
247628 14 288 730 286 ?224 296 297 6 298 +0 0 224 296 22 81 1 292 1527 251 288 2
99 286 300 285 301 81 1 294 1627 183 296 300 0 286 302 303 82 1 295 -2075328374
 14 296 716 294 ?288 304 305 6 306 -0 0 288 304 22 81 1 300 1526 251 296 307 294
 308 292 309 81 1 302 1628 183 304 308 0 294 310 311 82 1 303 -2080571257 14 304
 657 302 ?296 312 313 6 314 +0 0 296 312 22 81 1 308 1525 251 304 315 302 316 30
0 317 81 1 310 1629 183 312 316 0 302 318 319 82 1 311 -1375600511 14 312 649 31
0 ?304 320 321 6 322 -0 0 304 320 22 81 1 316 1524 251 312 323 310 324 308 325 8
1 1 318 1630 183 320 324 0 310 326 327 82 1 319 -1371996015 14 320 596 318 ?312
 328 329 6 330 -0 0 312 328 22 81 1 324 1523 251 320 331 318 332 316 333 81 1 32
6 1631 183 328 332 0 318 334 335 82 1 327 -1406402432 14 328 467 326 ?320 336 33
7 6 338 +0 0 320 336 22 81 1 332 1522 251 328 339 326 340 324 341 81 1 334 1632
 183 336 340 0 326 342 343 82 1 335 328532082 14 336 462 334 ?328 344 345 6 346
 -0 0 328 344 22 81 1 340 1521 251 336 347 334 348 332 349 81 1 342 1633 183 344
 348 0 334 350 351 82 1 343 330498162 14 344 436 342 ?336 352 353 6 354 +0 0 336
 352 22 81 1 348 1520 251 344 355 342 356 340 357 81 1 350 1634 183 352 356 0 34
2 358 359 82 1 351 324599922 14 352 431 350 ?344 360 361 6 362 -0 0 344 360 22 8
1 1 356 1519 251 352 363 350 364 348 365 81 1 358 1635 183 360 364 0 350 366 367
 82 1 359 326566002 14 360 405 358 ?352 368 369 6 370 +0 0 352 368 22 81 1 364 1
518 251 360 371 358 372 356 373 81 1 366 1636 183 368 372 0 358 374 375 82 1 367
 320667762 14 368 400 366 ?360 376 377 6 378 -0 0 360 376 22 81 1 372 1517 251 3
68 379 366 380 364 381 81 1 374 1637 183 376 380 0 366 382 383 82 1 375 32263384
2 14 376 374 374 ?368 198 384 6 385 +0 0 368 198 22 81 1 380 1516 251 376 386 37
4 387 372 388 81 1 382 1638 183 198 387 0 374 389 390 82 1 383 316735602 14 198
 369 382 ?376 195 391 6 392 -0 0 376 195 22 81 1 387 1515 251 198 393 382 394 38
0 395 81 1 389 1639 183 213 396 0 382 397 398 82 1 390 318701682 14 213 312 389
 ?208 399 400 6 401 -0 0 208 399 22 81 1 396 1509 251 213 402 389 403 404 405 81
 1 397 1640 183 399 403 0 389 406 407 82 1 398 339017842 14 399 318 397 ?213 187
 408 6 409 -0 0 213 187 22 81 1 403 1508 251 399 410 397 411 396 412 81 1 406 16
41 183 187 411 0 397 0 413 82 1 407 339542130 14 187 324 406 ?399 180 414 6 194
 -0 0 399 180 22 81 1 411 1507 251 187 415 406 416 403 417 82 1 413 340066418 80
 1 251 0 418 8001 0 0 0 0 3 5 0 0 0 FFFFTFTFFFFFFF2 81 2 415 1350 419 187 0 411
 420 410 0 0 81 1 416 1506 251 180 420 185 184 411 421 83 255 3 417 .79215686274
5098 .819607843137255 .933333333333333 81 2 420 1348 419 180 0 416 422 415 0 0 8
1 1 185 1610 183 180 416 0 179 190 423 81 1 184 1505 251 178 422 179 424 416 425
 83 3 421 .792156862745098 .819607843137255 .933333333333333 81 2 422 1346 419 1
78 0 184 426 420 0 0 81 1 424 1504 251 16 426 190 0 184 427 83 3 425 .1019607843
137254 .1019607843137254 .1019607843137254 81 2 426 1345 419 16 0 424 0 422 0 0
 81 1 190 1611 183 16 424 0 185 197 428 83 3 427 .1019607843137254 .101960784313
7254 .1019607843137254 81 1 197 1612 183 195 394 0 190 202 429 82 1 428 -1049558
897 81 1 394 1514 251 195 430 197 431 387 432 81 1 202 1613 183 199 431 0 197 20
7 433 82 1 429 -1070858093 81 1 431 1513 251 199 434 202 435 394 436 81 1 207 16
14 183 205 437 0 202 210 438 82 1 433 -1068892013 81 1 437 1511 251 205 439 207
 404 435 440 81 1 210 1615 183 203 435 0 207 212 441 82 1 438 2084634771 81 1 43
5 1512 251 203 442 210 437 431 443 81 1 212 1616 183 208 404 0 210 222 444 82 1
 441 2086338707 81 1 404 1510 251 208 445 212 396 437 446 81 1 222 1617 183 216
 283 0 212 230 447 82 1 444 2086600851 81 1 283 1529 251 216 448 222 285 276 449
 81 1 230 1618 183 226 261 0 222 235 450 82 1 447 1361313932 81 1 261 1534 251 2
26 451 230 254 237 452 82 1 450 1985806483 81 2 451 1399 419 226 0 261 259 453 0
 0 81 1 237 1535 251 231 453 235 261 246 454 83 3 452 .792156862745098 .81960784
3137255 .933333333333333 81 2 453 1401 419 231 0 237 451 252 0 0 83 3 454 .79215
6862745098 .819607843137255 .933333333333333 80 2 419 455 456 9000 0 0 0 0 3 6 0
 0 0 FFFFTFFFFFFFFF9 1 81 2 252 1403 419 19 0 246 453 0 0 0 79 255 14 456 FACE_I
D_2_200181 2 259 1397 419 175 0 254 268 451 0 0 81 2 268 1396 419 257 0 260 275
 259 0 0 81 2 275 1395 419 265 0 269 282 268 0 0 81 2 282 1394 419 223 0 276 448
 275 0 0 81 2 448 1393 419 216 0 283 291 282 0 0 81 2 291 1391 419 224 0 285 299
 448 0 0 81 2 299 1389 419 288 0 292 307 291 0 0 81 2 307 1387 419 296 0 300 315
 299 0 0 81 2 315 1385 419 304 0 308 323 307 0 0 81 2 323 1383 419 312 0 316 331
 315 0 0 81 2 331 1382 419 320 0 324 339 323 0 0 81 2 339 1380 419 328 0 332 347
 331 0 0 81 2 347 1378 419 336 0 340 355 339 0 0 81 2 355 1376 419 344 0 348 363
 347 0 0 81 2 363 1374 419 352 0 356 371 355 0 0 81 2 371 1372 419 360 0 364 379
 363 0 0 81 2 379 1370 419 368 0 372 386 371 0 0 81 2 386 1368 419 376 0 380 393
 379 0 0 81 2 393 1366 419 198 0 387 430 386 0 0 81 2 430 1364 419 195 0 394 434
 393 0 0 81 2 434 1362 419 199 0 431 442 430 0 0 81 2 442 1360 419 203 0 435 439
 434 0 0 81 2 439 1358 419 205 0 437 445 442 0 0 81 2 445 1356 419 208 0 404 402
 439 0 0 81 2 402 1354 419 213 0 396 410 445 0 0 81 2 410 1352 419 399 0 403 415
 402 0 0 83 3 449 .792156862745098 .819607843137255 .933333333333333 83 3 446 .7
92156862745098 .819607843137255 .933333333333333 83 3 443 .792156862745098 .8196
07843137255 .933333333333333 83 3 440 .792156862745098 .819607843137255 .9333333
33333333 83 3 436 .792156862745098 .819607843137255 .933333333333333 83 3 432 .7
92156862745098 .819607843137255 .933333333333333 82 1 423 340590706 79 15 418 SD
L/TYSA_COLOUR15 414 232 0 457 187 458 51 194 267 0 187 409 189 0 +0 -.012 .02470
1 0 0 -1 .00175 -1 0 0 51 409 270 0 399 401 194 0 +-.012 0 .024701 0 0 -1 .00175
 -1 0 0 51 401 273 0 213 346 409 0 +0 .012 .024701 0 0 -1 .00175 -1 0 0 51 346 4
88 0 336 338 401 0 +.012 0 .0037 0 0 -1 .00325 -1 0 0 50 338 490 0 328 362 346 0
 +.012 0 .0037 0 0 -1 -1 0 0 51 362 492 0 352 354 338 0 +0 -.012 .0037 0 0 -1 .0
0325 -1 0 0 50 354 494 0 344 378 362 0 +0 -.012 .0037 0 0 -1 -1 0 0 51 378 496 0
 368 370 354 0 +-.012 0 .0037 0 0 -1 .00325 -1 0 0 50 370 498 0 360 392 378 0 +-
.012 0 .0037 0 0 -1 -1 0 0 51 392 500 0 198 385 370 0 +0 .012 .0037 0 0 -1 .0032
5 -1 0 0 50 385 502 0 376 330 392 0 +0 .012 .0037 0 0 -1 -1 0 0 51 330 609 0 320
 192 385 0 +0 0 .0234 0 0 1 .0065 1 0 0 50 192 611 0 16 314 330 0 +0 0 .0234 0 0
 1 1 0 0 51 314 670 0 304 322 192 0 -0 0 .0013 0 0 -1 .0065 -1 0 0 50 322 672 0
 312 306 314 0 +0 0 .0013 0 0 1 1 0 0 51 306 736 0 296 298 322 0 +0 0 -.04217005
76850888 0 0 1 .0095 1 0 0 50 298 739 0 288 290 306 0 +0 0 .0047 0 0 1 1 0 0 51
 290 806 0 224 274 298 0 -0 0 .0057 0 0 -1 .0075 -1 0 0 51 274 897 0 265 281 290
 0 -0 0 .0239 0 0 -1 .0045 -1 0 0 50 281 899 0 223 267 274 0 +0 0 .0239 0 0 1 1
 0 0 51 267 962 0 257 258 281 0 +0 0 8e-4 0 0 1 .0045 1 0 0 50 258 964 0 175 0 2
67 0 +0 0 8e-4 0 0 1 1 0 0 17 457 0 414 457 457 0 66 62 0 0 -15 458 322 0 97 187
 0 17 97 0 458 97 97 0 459 82 0 0 +17 459 0 353 459 459 0 97 82 0 0 -15 353 438
 0 459 344 460 15 460 439 0 93 344 0 17 93 0 460 93 93 0 461 90 0 0 +17 461 0 36
1 461 461 0 93 90 0 0 -15 361 434 0 461 352 462 15 462 435 0 89 352 0 17 89 0 46
2 89 89 0 463 86 0 0 +17 463 0 464 463 463 0 89 86 0 0 -15 464 339 0 463 203 465
 15 465 333 0 466 203 0 17 466 0 465 466 466 0 77 74 0 0 -17 77 0 467 77 77 0 46
6 74 0 0 +15 467 466 0 77 336 0 17 66 0 468 66 66 0 457 62 0 0 +15 468 176 0 66
 205 469 15 469 170 0 61 205 0 17 61 0 469 61 61 0 470 58 0 0 +17 470 0 188 470
 470 0 61 58 0 0 -15 188 248 0 470 180 471 15 471 328 0 84 180 0 17 84 0 471 84
 84 0 472 79 0 0 +17 472 0 337 472 472 0 84 79 0 0 -15 337 469 0 472 328 473 15
 473 470 0 81 328 0 17 81 0 473 81 81 0 474 78 0 0 +17 474 0 345 474 474 0 81 78
 0 0 -15 345 465 0 474 336 467 83 3 412 .792156862745098 .819607843137255 .93333
3333333333 15 408 216 0 475 399 476 17 475 0 408 475 475 0 70 67 0 0 -15 476 316
 0 109 399 0 17 109 0 476 109 109 0 477 94 0 0 +17 477 0 369 477 477 0 109 94 0
 0 -15 369 407 0 477 360 478 15 478 408 0 105 360 0 17 105 0 478 105 105 0 479 1
02 0 0 +17 479 0 377 479 479 0 105 102 0 0 -15 377 403 0 479 368 480 15 480 404
 0 101 368 0 17 101 0 480 101 101 0 481 98 0 0 +17 481 0 482 481 481 0 101 98 0
 0 -15 482 345 0 481 203 464 17 70 0 483 70 70 0 475 67 0 0 +15 483 182 0 70 205
 468 83 3 405 .792156862745098 .819607843137255 .933333333333333 15 400 200 0 48
4 213 485 17 484 0 400 484 484 0 73 57 0 0 -15 485 310 0 119 213 0 17 119 0 485
 119 119 0 486 106 0 0 +17 486 0 384 486 486 0 119 106 0 0 -15 384 376 0 486 376
 487 15 487 377 0 116 376 0 17 116 0 487 116 116 0 488 63 0 0 +17 488 0 391 488
 488 0 116 63 0 0 -15 391 372 0 488 198 489 15 489 373 0 113 198 0 17 113 0 489
 113 113 0 490 110 0 0 +17 490 0 491 490 490 0 113 110 0 0 -15 491 351 0 490 203
 482 17 73 0 492 73 73 0 484 57 0 0 +15 492 188 0 73 205 483 83 3 395 .792156862
745098 .819607843137255 .933333333333333 83 3 388 .792156862745098 .819607843137
255 .933333333333333 83 3 381 .792156862745098 .819607843137255 .933333333333333
 83 3 373 .792156862745098 .819607843137255 .933333333333333 83 3 365 .792156862
745098 .819607843137255 .933333333333333 83 3 357 .792156862745098 .819607843137
255 .933333333333333 83 3 349 .792156862745098 .819607843137255 .933333333333333
 83 3 341 .792156862745098 .819607843137255 .933333333333333 83 3 333 .792156862
745098 .819607843137255 .933333333333333 15 329 599 0 493 320 494 17 493 0 329 4
93 493 0 127 85 0 0 -15 494 600 0 123 320 0 17 123 0 494 123 123 0 495 120 0 0 +
17 495 0 496 495 495 0 123 120 0 0 -15 496 575 0 495 195 0 17 127 0 191 127 127
 0 493 85 0 0 +15 191 590 0 127 16 497 15 497 859 0 498 16 0 17 498 0 497 498 49
8 0 154 151 0 0 -17 154 0 499 154 154 0 498 151 0 0 +15 499 889 0 154 265 0 83 3
 325 .1019607843137254 .1019607843137254 .1019607843137254 15 321 924 0 166 312
 500 17 166 0 321 166 166 0 501 163 0 0 +15 500 651 0 502 312 0 17 502 0 500 502
 502 0 135 124 0 0 -17 135 0 313 135 135 0 502 124 0 0 +15 313 660 0 135 304 503
 15 503 661 0 504 304 0 17 504 0 503 504 504 0 131 128 0 0 -17 131 0 505 131 131
 0 504 128 0 0 +15 505 630 0 131 203 491 17 501 0 506 501 501 0 166 163 0 0 -15
 506 946 0 501 257 0 83 3 317 .792156862745098 .819607843137255 .933333333333333
 83 3 309 .792156862745098 .819607843137255 .933333333333333 15 305 719 0 143 29
6 507 17 143 0 305 143 143 0 508 132 0 0 +15 507 720 0 139 296 0 17 139 0 507 13
9 139 0 509 136 0 0 +17 509 0 510 509 509 0 139 136 0 0 -15 510 703 0 509 205 49
2 17 508 0 297 508 508 0 143 132 0 0 -15 297 732 0 508 288 511 15 511 790 0 512
 288 0 17 512 0 511 512 512 0 149 146 0 0 -17 149 0 513 149 149 0 512 146 0 0 +1
5 513 800 0 149 224 0 83 3 301 .792156862745098 .819607843137255 .93333333333333
3 83 3 293 .792156862745098 .819607843137255 .933333333333333 15 289 830 0 56 22
4 513 17 56 0 289 56 56 0 514 53 0 0 +17 514 0 225 514 514 0 56 53 0 0 -15 225 8
42 0 514 216 515 15 515 843 0 516 216 0 17 516 0 515 516 516 0 145 140 0 0 -17 1
45 0 517 145 145 0 516 140 0 0 +15 517 764 0 145 199 0 83 3 284 .101960784313725
4 .1019607843137254 .1019607843137254 15 280 879 0 158 223 518 17 158 0 280 158
 158 0 519 150 0 0 +15 518 880 0 520 223 0 17 520 0 518 520 520 0 161 155 0 0 -1
7 161 0 181 161 161 0 520 155 0 0 +17 519 0 273 519 519 0 158 150 0 0 -15 273 88
8 0 519 265 499 83 3 277 .1019607843137254 .1019607843137254 .1019607843137254 8
3 3 270 .1019607843137254 .1019607843137254 .1019607843137254 15 266 945 0 170 2
57 506 17 170 0 266 170 170 0 521 162 0 0 +17 521 0 176 521 521 0 170 162 0 0 -1
5 176 950 0 521 175 0 83 3 262 .1019607843137254 .1019607843137254 .101960784313
7254 83 3 253 .792156862745098 .819607843137255 .933333333333333 79 14 250 SWEnt
Unchanged82 1 239 1987182739 80 2 218 522 523 8044 0 0 0 0 3 5 0 0 0 FFFFTFFFTTF
FFF3 2 81 2 18 1071 218 7 0 0 227 0 524 525 84 255 6 233 BAAAAB83 3 234 -5e-4 0
 5e-4 84 6 524 BAAAAB83 3 525 0 .000500000000000014 .000500000000000014 79 17 52
3 SDL/TYSA_BLEND_ID15 232 1036 0 526 226 527 17 526 0 232 526 526 0 48 45 0 0 -1
5 527 1037 0 528 226 0 17 528 0 527 528 528 0 52 49 0 0 -17 52 0 200 52 52 0 528
 49 0 0 +15 200 990 0 52 195 496 17 48 0 204 48 48 0 526 45 0 0 +15 204 996 0 48
 199 517 84 6 228 BAAAAB83 3 229 0 .000499999999999994 .000499999999999994 84 6
 220 BAAAAB83 3 221 -5e-4 0 5e-4 15 35 1015 0 31 203 505 15 28 1021 0 24 205 510
 82 1 186 -1404436335 80 2 26 529 530 9000 0 0 0 0 3 6 0 0 0 FFFFFFTFFFFFFF9 1 8
1 2 76 1476 26 74 0 0 34 171 0 0 81 2 55 1478 26 53 0 0 171 112 0 0 81 2 112 147
9 26 110 0 0 55 108 0 0 81 2 108 1480 26 94 0 0 112 169 0 0 81 2 169 1481 26 162
 0 0 108 69 0 0 81 2 69 1482 26 67 0 0 169 51 0 0 81 2 51 1483 26 49 0 0 69 138
 0 0 81 2 138 1484 26 136 0 0 51 43 0 0 81 2 43 1485 26 39 0 0 138 88 0 0 81 2 8
8 1486 26 86 0 0 43 126 0 0 81 2 126 1487 26 85 0 0 88 148 0 0 81 2 148 1488 26
 146 0 0 126 47 0 0 81 2 47 1489 26 45 0 0 148 96 0 0 81 2 96 1490 26 82 0 0 47
 134 0 0 81 2 134 1491 26 124 0 0 96 60 0 0 81 2 60 1492 26 58 0 0 134 100 0 0 8
1 2 100 1493 26 98 0 0 60 72 0 0 81 2 72 1494 26 57 0 0 100 130 0 0 81 2 130 149
5 26 128 0 0 72 142 0 0 81 2 142 1496 26 132 0 0 130 115 0 0 81 2 115 1497 26 63
 0 0 142 157 0 0 81 2 157 1498 26 150 0 0 115 65 0 0 81 2 65 1499 26 62 0 0 157
 92 0 0 81 2 92 1500 26 90 0 0 65 37 0 0 81 2 37 1501 26 32 0 0 92 27 0 0 81 2 2
7 1502 26 140 0 0 37 23 0 0 81 2 34 1475 26 78 0 0 30 76 0 0 79 19 530 EDGE_PERM
_ID_2_200381 2 165 1467 26 163 0 0 0 122 0 0 81 2 122 1468 26 120 0 0 165 153 0
 0 81 2 153 1469 26 151 0 0 122 104 0 0 81 2 104 1470 26 102 0 0 153 160 0 0 81
 2 160 1471 26 155 0 0 104 118 0 0 81 2 118 1472 26 106 0 0 160 33 0 0 81 2 33 1
473 26 79 0 0 118 30 0 0 19 17 32 0 1 0 9 6 S0 50 15 698 0 1 531 4 0 +0 0 .0047
 0 0 1 1 0 0 50 531 697 0 1 532 15 0 +0 0 .0047 0 0 1 1 0 0 50 532 696 0 1 0 531
 0 +0 0 .0047 0 0 1 1 0 0 74 4 CI16 index_map_offset0 0 1 dCCZ20 14 12 0 0 406 1
8 533 534 535 536 537 12 252 23 246 2 0 0 0 0 0 0 0 0 81 2 533 974 538 1 0 534 0
 0 0 539 81 2 534 979 540 1 533 535 0 0 0 541 81 1 535 1086 542 1 534 536 0 0 54
3 81 2 536 1121 544 1 535 537 0 0 545 0 81 2 537 1225 546 1 536 12 0 0 0 547 81
 2 12 1335 548 1 537 2 0 0 0 0 80 2 548 549 550 9000 0 0 0 0 3 5 0 0 0 FFTFFFFFF
FFFFF9 1 79 16 550 BODY_RECIPE_200180 2 546 551 552 9000 0 0 0 0 3 5 0 0 0 FFTFF
FFFFFFFFF9 1 82 1 547 1 79 24 552 BODY_IN_LIGHTWEIGHT_PERM80 2 544 553 554 8004
 0 0 0 0 3 5 0 0 0 FFTFFFFFFFFFFF2 3 83 1 545 1 79 16 554 SDL/TYSA_DENSITY80 1 5
42 555 556 9000 1 1 1 1 1 1 1 1 0 FFTFFFFFFFFFFF1 82 1 543 425023 79 10 556 BODY
_MATCH80 2 540 557 558 9000 0 0 0 0 3 5 0 0 0 FFTFFFFFFFFFFF9 1 82 1 541 146 79
 30 558 LAST_BODY_MODIFYING_FEATURE_ID80 2 538 559 560 9000 0 0 0 0 3 5 0 0 0 FF
TFFFFFFFFFFT9 1 82 1 539 140 79 19 560 ENT_TIME_STAMP_200180 2 11 26 561 9000 0
 0 0 0 3 5 0 0 0 FFTFFFFFFFFFFF9 1 82 1 13 111 79 12 561 ATOM_ID_20011 0 
